<svg id="Layer_1" data-name="Layer 1" xmlns="http://www.w3.org/2000/svg" viewBox="0 0 515.48 616.64"><defs><style>.cls-1{fill:#fff;}</style></defs><title>hylyan shield</title><path class="cls-1" d="M48.26,134H563.74V750.6H48.26Zm11.91,166h.19q.54,7.51,1.09,15c.3,3.95.59,7.89.95,11.83.3,3.24.69,6.47,1,9.7.54,4.83,1,9.68,1.64,14.49.59,4.27,1.48,8.5,2.15,12.76,1,6.51,1.77,13.08,3,19.55,2.21,11.27,4.7,22.48,7.16,33.7,1.09,5,2.27,9.94,3.6,14.85,2.28,8.41,4.71,16.78,7.08,25.16,1.26,4.44,2.34,8.95,3.86,13.3,3.14,9,6.32,17.92,9.88,26.72,3.23,8,6.76,15.89,10.57,23.61,4.32,8.75,8.82,17.43,13.77,25.83,6.08,10.3,12.5,20.41,19.15,30.34,6.1,9.11,12.52,18,19.14,26.74,6.15,8.09,12.69,15.88,19.17,23.72,3.58,4.33,7.32,8.54,11.09,12.71,5.75,6.35,11.41,12.8,17.45,18.87q13.35,13.45,27.23,26.4c6.83,6.39,13.89,12.58,21.11,18.53,6.4,5.27,13.16,10.09,19.77,15.1a99.91,99.91,0,0,0,20.52,12.29,28.21,28.21,0,0,0,4.23,1.37,2.89,2.89,0,0,0,1.54-.22c1.78-.66,3.57-1.31,5.31-2.08a53.14,53.14,0,0,0,6.87-3.34c5.09-3.24,10.17-6.53,15-10.12,6.41-4.74,12.72-9.63,18.84-14.73,6.33-5.27,12.46-10.79,18.55-16.35s12-11,17.73-16.79c7.89-7.94,15.69-16,23.26-24.24,6.08-6.62,11.83-13.55,17.62-20.43,5.3-6.31,10.65-12.6,15.62-19.16,6.33-8.35,12.44-16.88,18.39-25.5,5.45-7.92,10.76-15.95,15.79-24.14,4.66-7.58,9-15.39,13.23-23.21,2.42-4.44,4.41-9.11,6.63-13.67,1.69-3.45,3.59-6.8,5.1-10.32,3-7.13,6.06-14.29,8.79-21.54,2.81-7.46,5.39-15,7.83-22.59,1.68-5.25,3-10.63,4.41-16q3.36-12.54,6.61-25.11c.8-3.14,1.32-6.34,2.05-9.5.65-2.79,1.49-5.54,2.1-8.35,1.1-5.09,2.12-10.2,3.11-15.32s1.89-10,2.74-15.07c.64-3.83,1.11-7.69,1.72-11.53.67-4.25,1.54-8.49,2.09-12.76.69-5.35,1.15-10.73,1.71-16.1.73-7,1.58-14,2.16-21,.49-6,.94-11.95.94-17.93,0-12.21.34-24.43-.5-36.64q-.82-12.09-2.68-24a3,3,0,0,0-3.07-2.92,10,10,0,0,1-1.42-.24c-5.41-1.37-10.84-2.72-16.24-4.14-6.85-1.79-13.69-3.59-20.52-5.46-4.05-1.12-8.06-2.36-12.07-3.6-2.7-.83-5.36-1.76-8-2.63-10.72-3.49-21.5-6.79-32.14-10.51s-21.33-7.93-32-12c-5.33-2-10.65-4.06-15.94-6.19-4.09-1.65-8.13-3.43-12.2-5.17-5.15-2.19-10.3-4.37-15.44-6.6q-6.79-3-13.57-6-7.17-3.18-14.31-6.41c-4.7-2.15-9.36-4.39-14.08-6.49-6-2.69-12.1-5.3-18.16-7.93L311,145.29a13.44,13.44,0,0,0-10.92,0c-2.54,1.08-5.08,2.21-7.62,3.29-3.82,1.63-7.68,3.17-11.46,4.88-5.34,2.43-10.6,5-15.94,7.45-4.55,2.09-9.17,4-13.75,6.07-7.79,3.45-15.52,7-23.36,10.36-9.7,4.13-19.46,8.12-29.24,12.06-8.53,3.44-17.08,6.86-25.7,10.08s-17.33,6.19-26,9.2c-4.87,1.69-9.78,3.28-14.7,4.84q-9.89,3.12-19.82,6.12c-5.39,1.63-10.78,3.27-16.22,4.73-7.25,2-14.54,3.77-21.82,5.6-2.73.68-5.49,1.29-8.24,1.87a3.13,3.13,0,0,0-2.75,3.08c-.54,4.18-1.24,8.35-1.61,12.55-.64,7.5-1.35,15-1.55,22.53C60,280,60.17,289.94,60.17,299.91Z" transform="translate(-48.26 -133.96)"/><path d="M60.17,299.91c0-10-.2-19.94.07-29.9.2-7.52.91-15,1.55-22.53.37-4.2,1.07-8.37,1.61-12.55a3.13,3.13,0,0,1,2.75-3.08c2.75-.58,5.51-1.19,8.24-1.87,7.28-1.83,14.57-3.64,21.82-5.6,5.44-1.46,10.83-3.1,16.22-4.73q9.93-3,19.82-6.12c4.92-1.56,9.83-3.15,14.7-4.84,8.7-3,17.41-6,26-9.2s17.17-6.64,25.7-10.08c9.78-3.94,19.54-7.93,29.24-12.06,7.84-3.33,15.57-6.91,23.36-10.36,4.58-2,9.2-4,13.75-6.07,5.34-2.43,10.6-5,15.94-7.45,3.78-1.71,7.64-3.25,11.46-4.88,2.54-1.08,5.08-2.21,7.62-3.29a13.44,13.44,0,0,1,10.92,0l7.48,3.23c6.06,2.63,12.13,5.24,18.16,7.93,4.72,2.1,9.38,4.34,14.08,6.49s9.53,4.29,14.31,6.41q6.78,3,13.57,6c5.14,2.23,10.29,4.41,15.44,6.6,4.07,1.74,8.11,3.52,12.2,5.17,5.29,2.13,10.61,4.18,15.94,6.19,10.64,4,21.24,8.2,32,12s21.42,7,32.14,10.51c2.68.87,5.34,1.8,8,2.63,4,1.24,8,2.48,12.07,3.6,6.83,1.87,13.67,3.67,20.52,5.46,5.4,1.42,10.83,2.77,16.24,4.14a10,10,0,0,0,1.42.24,3,3,0,0,1,3.07,2.92q1.86,12,2.68,24c.84,12.21.51,24.43.5,36.64,0,6-.45,12-.94,17.93-.58,7-1.43,14-2.16,21-.56,5.37-1,10.75-1.71,16.1-.55,4.27-1.42,8.51-2.09,12.76-.61,3.84-1.08,7.7-1.72,11.53-.85,5-1.78,10.05-2.74,15.07s-2,10.23-3.11,15.32c-.61,2.81-1.45,5.56-2.1,8.35-.73,3.16-1.25,6.36-2.05,9.5q-3.23,12.58-6.61,25.11c-1.42,5.34-2.73,10.72-4.41,16-2.44,7.59-5,15.13-7.83,22.59-2.73,7.25-5.74,14.41-8.79,21.54-1.51,3.52-3.41,6.87-5.1,10.32-2.22,4.56-4.21,9.23-6.63,13.67-4.26,7.82-8.57,15.63-13.23,23.21-5,8.19-10.34,16.22-15.79,24.14-6,8.62-12.06,17.15-18.39,25.5-5,6.56-10.32,12.85-15.62,19.16-5.79,6.88-11.54,13.81-17.62,20.43-7.57,8.25-15.37,16.3-23.26,24.24-5.74,5.77-11.72,11.3-17.73,16.79S359,696.75,352.62,702c-6.12,5.1-12.43,10-18.84,14.73-4.84,3.59-9.92,6.88-15,10.12a53.14,53.14,0,0,1-6.87,3.34c-1.74.77-3.53,1.42-5.31,2.08a2.89,2.89,0,0,1-1.54.22,28.21,28.21,0,0,1-4.23-1.37,99.91,99.91,0,0,1-20.52-12.29c-6.61-5-13.37-9.83-19.77-15.1-7.22-6-14.28-12.14-21.11-18.53q-13.86-12.94-27.23-26.4c-6-6.07-11.7-12.52-17.45-18.87-3.77-4.17-7.51-8.38-11.09-12.71-6.48-7.84-13-15.63-19.17-23.72-6.62-8.73-13-17.63-19.14-26.74-6.65-9.93-13.07-20-19.15-30.34-5-8.4-9.45-17.08-13.77-25.83-3.81-7.72-7.34-15.62-10.57-23.61-3.56-8.8-6.74-17.76-9.88-26.72-1.52-4.35-2.6-8.86-3.86-13.3-2.37-8.38-4.8-16.75-7.08-25.16-1.33-4.91-2.51-9.88-3.6-14.85-2.46-11.22-5-22.43-7.16-33.7-1.27-6.47-2-13-3-19.55-.67-4.26-1.56-8.49-2.15-12.76-.66-4.81-1.1-9.66-1.64-14.49-.35-3.23-.74-6.46-1-9.7-.36-3.94-.65-7.88-.95-11.83q-.56-7.5-1.09-15Zm249.21-1c0,8.27,0,16.53,0,24.8a4.47,4.47,0,0,0,.81,2.47c3.41,4.52,6.91,9,10.35,13.47,4.33,5.64,8.62,11.32,13,16.95,5.29,6.86,10.65,13.67,15.92,20.55,6.27,8.2,12.46,16.46,18.73,24.67a12.87,12.87,0,0,0,2.87,3q6.06,4,12.3,7.79c2.57,1.55,5,3.82,8.46,2.15,0,0,.1,0,.16,0a8.18,8.18,0,1,1,.23,16.36,8,8,0,0,1-7.85-7.32,2.31,2.31,0,0,0-.91-1.51c-4.41-2.81-8.83-5.59-13.32-8.27a6.8,6.8,0,0,0-3.28-.94c-39.66,0-79.31,0-119,0-3.59,0-6.75.4-9.75,2.6-3.35,2.45-7,4.41-10.55,6.66a2.24,2.24,0,0,0-.9,1.51,8.1,8.1,0,0,1-10.86,6.82c-3.86-1.6-6.42-6.31-4.7-10.56a8.22,8.22,0,0,1,10-5,4.07,4.07,0,0,0,2.81-.35c4.27-2.52,8.39-5.3,12.69-7.76A23.66,23.66,0,0,0,244.2,400c3.76-5.2,7.82-10.18,11.72-15.28,4.8-6.29,9.52-12.64,14.34-18.9,6.14-8,12.36-15.88,18.52-23.84,3.8-4.9,7.58-9.81,11.29-14.77a6.52,6.52,0,0,0,1.52-3.36c.1-16.64.06-33.27.08-49.91a2.66,2.66,0,0,0-1.34-2.51,8.56,8.56,0,0,1-4.1-5.32,2.28,2.28,0,0,0-2.61-2.14c-7.84,0-15.68-.15-23.5.11-3,.1-4.48-1.13-5.77-3.5-3-5.53-6.15-11-9.26-16.47s-6.18-10.84-9.28-16.27c-1.11-1.94-2.16-3.92-3.39-5.79a2.09,2.09,0,0,0-1.81-.62c-2.46.65-4.87,1.46-7.3,2.23-5.41,1.74-10.81,3.52-16.23,5.21-4.71,1.46-9.47,2.76-14.18,4.23-5,1.55-9.88,3.28-14.86,4.82-8.31,2.58-16.67,5-25,7.6-5.77,1.8-11.48,3.83-17.26,5.65s-11.59,3.48-17.38,5.22c-1.5.45-1.76,1.16-.87,2.3,5.17,6.68,10.33,13.38,15.53,20a2.79,2.79,0,0,1,.19,3.66c-1.11,1.63-2.29,3.22-3.4,4.85-5.86,8.64-11,17.62-13.69,27.81a2.11,2.11,0,0,1-2.89,1.72c-2.78-.7-5.54-1.44-8.33-2.1-2.12-.51-4.26-.94-6.39-1.38-3.07-.63-6.16-1.16-9.2-1.9-2.17-.53-2.68-.3-2.55,1.91.31,5.39.63,10.77,1,16.15.31,4.2.73,8.4,1.15,12.59.32,3.17.73,6.34,1.09,9.51.33,3,.6,5.95,1,8.91.61,4.65,1.22,9.31,2,13.94q1.2,7.5,2.62,14.94,2.25,11.75,4.67,23.46c.77,3.74,1.6,7.48,2.57,11.17,1.41,5.39,3,10.75,4.49,16.1,1.24,4.29,2.56,8.56,3.85,12.83,1,3.45,1.93,6.94,3.12,10.33,1.59,4.51,3.38,8.94,5.1,13.4,1.53,4,3,8,4.65,11.89,1.53,3.61,3.21,7.17,5,10.68,3.4,6.81,6.64,13.72,10.41,20.33,4.89,8.57,10,17.05,16.14,24.82,3.15,4,6.35,7.93,9.51,11.91.71.9,1.41.9,2.33.25,5.76-4.06,11.56-8.06,17.31-12.13,2.56-1.82,3.51-1.68,5.41.83,3.07,4,6.2,8,9.32,12,2.52,3.25,5.09,6.46,7.53,9.78a3.65,3.65,0,0,1,.56,2.5,17.72,17.72,0,0,1-1.24,3.61c-2.52,6.32-5.09,12.62-7.56,19a3.07,3.07,0,0,0,.22,2.11,14.27,14.27,0,0,0,1.64,2.36c4.58,6.13,9.08,12.33,14.6,17.69,5.68,5.5,11.21,11.18,17,16.56A126.07,126.07,0,0,0,253,639.53c5.45,4,11,7.88,16.56,11.81,1.19.85,2,.43,2.49-.81.42-1,.74-2.11,1.17-3.14,1.54-3.61,3.17-7.18,4.64-10.82,1.66-4.13,3.14-8.33,4.78-12.47,1.28-3.24,1.66-3.43,5.12-3.42h34.61c.86,0,1.72,0,2.58,0a2.9,2.9,0,0,1,2.92,2.06c1.64,4.14,3.31,8.27,5,12.41,2.06,5.11,4.1,10.23,6.2,15.33.61,1.48,1.21,1.63,2.61.7,3.51-2.34,7.09-4.59,10.44-7.14,5.92-4.5,11.91-8.94,17.45-13.87,5.82-5.18,11.12-11,16.71-16.41,6-5.86,10.84-12.68,15.71-19.45a2.93,2.93,0,0,0,.22-2.36c-2.67-7.06-5.3-14.14-8.25-21.08-.92-2.17-.32-3.54.88-5.08q8.1-10.37,16.18-20.73c1.83-2.36,2.75-2.51,5.18-.79,5.8,4.09,11.64,8.14,17.44,12.23a1.46,1.46,0,0,0,2.33-.27c4.61-5.9,9.31-11.72,13.79-17.71a102.43,102.43,0,0,0,6.24-9.69c3.55-6,7.05-12.06,10.39-18.19,2.32-4.25,4.4-8.63,6.47-13,1.65-3.49,3.18-7.05,4.63-10.64,2.09-5.18,4.08-10.4,6.06-15.62,1.64-4.31,3.35-8.6,4.79-13,1.55-4.68,2.83-9.45,4.19-14.19q2.26-7.89,4.47-15.79c.62-2.25,1.13-4.53,1.69-6.79.66-2.63,1.4-5.24,2-7.88.7-3.22,1.26-6.47,1.89-9.7,1.3-6.74,2.72-13.46,3.89-20.21s2.16-13.79,3.16-20.69c.74-5.11,1.39-10.24,2-15.37.25-2,.36-4,.54-6.06.35-4,.75-8,1.06-11.95.2-2.56.25-5.13.41-7.7.2-3.14.5-6.28.65-9.42.06-1.4-.6-1.72-2-1.41-4.5,1-9,2-13.53,3-3.62.81-7.25,1.59-10.87,2.46-1.67.4-2.55-.08-3.07-1.83a66.11,66.11,0,0,0-2.12-6.66,118.62,118.62,0,0,0-14.75-25.58c-.83-1.1-1.22-2.31-.27-3.54q7.68-10,15.4-19.94c1.36-1.73,1.19-2.43-.93-2.88-.31-.06-.63-.12-.93-.21-4-1.22-8-2.43-12-3.67-5.48-1.7-11-3.4-16.42-5.15-4.8-1.54-9.57-3.18-14.37-4.7-3.49-1.1-7-2-10.54-3.12-7.14-2.24-14.27-4.55-21.4-6.82-3.9-1.24-7.8-2.45-11.7-3.67-4.46-1.38-8.93-2.73-13.39-4.14-3.39-1.06-6.79-2.13-10.14-3.32-1.88-.67-2.72.3-3.47,1.73-1.32,2.5-2.64,5-4,7.46-3.06,5.38-6.16,10.73-9.24,16.1-2.87,5-5.8,10-8.58,15-1,1.77-2.29,2.24-4.18,2.22-8.11-.07-16.21,0-24.31-.06-1.29,0-2.27.33-2.51,1.68a8.56,8.56,0,0,1-4.08,5.69,2.94,2.94,0,0,0-1.46,2.77C309.4,282.4,309.38,290.67,309.38,298.93Zm-3.95-47.44c9.23,0,18.46,0,27.69,0a2.48,2.48,0,0,0,2.5-1.34c1.34-2.61,2.73-5.18,4-7.82a2.25,2.25,0,0,0,0-1.9,7.49,7.49,0,0,0-6.66-3.45c-4.28.24-6.87,3-6.13,6.65a20.77,20.77,0,0,0,1.33,3,8.11,8.11,0,0,1,.25,1.72c-.59,0-1.31.1-1.75-.18-3-1.94-5.35-5.86-4-9.94a13.84,13.84,0,0,1,1.74-3.56,2,2,0,0,0-.15-2.78,17,17,0,0,1-2.85-5.11c-1.63-5.57,1.9-13.44,9.91-13.52a9.5,9.5,0,0,1,7,3c.43.44.4,1.31.59,2a11.08,11.08,0,0,1-2.07.09c-1.19-.15-2.36-.51-3.55-.66-3.34-.41-6.23,2.61-5,6.77.88,3.12,3.61,5,7.34,5.48a30.7,30.7,0,0,1,6.41,1.18c3.05,1,3,1.2,4.54-1.61q5.12-9.49,10.16-19c3.64-6.88,7.22-13.79,10.85-20.67.44-.83.39-1.4-.53-1.79-.54-.23-1-.54-1.58-.77-5.37-2.33-10.76-4.62-16.12-7a1.61,1.61,0,0,0-2.3.71c-2.09,3.26-5.2,5.31-8.41,7.29a11.15,11.15,0,0,0-3.67,3.42c-2,3.39-1.08,8.17,3.27,9.05,2.59.53,4.48-.79,6.25-2.45a7.42,7.42,0,0,1,1.65-.88c.13.72.59,1.59.34,2.15-2.5,5.74-8.16,7.28-13.19,5.31a11,11,0,0,1-5.74-14.6c.66-1.5.29-2.22-.87-3a13.88,13.88,0,0,1-2.35-2.18,8.33,8.33,0,0,1-.36-10.51c.52-.63,1.58-.82,2.4-1.22a11.36,11.36,0,0,1-.13,2c-.87,3.4.95,6.85,4,7.17s6.37-.59,8.2-3.86c1.27-2.26,1.07-2.89-1.36-3.9-3.59-1.48-7.18-3-10.73-4.55-6.63-3-13.22-6-19.85-8.9a2.49,2.49,0,0,0-1.8-.06c-3.38,1.46-6.69,3.06-10.05,4.54-4.84,2.11-9.7,4.15-14.55,6.24-2.29,1-4.59,2-6.85,3.05-1.73.82-1.94,1.35-.91,3a9.9,9.9,0,0,0,2.93,3.28c2.9,1.71,6.89,2.07,8.89-1,1.2-1.84.94-3.74.41-5.7a4.66,4.66,0,0,1,0-1.18,4.15,4.15,0,0,1,1.33.08,2.46,2.46,0,0,1,1.12.87c1.77,2.63,2.62,5.51,1,8.43a20,20,0,0,1-3.75,4.48c-1,.94-1.35,1.57-.77,3a10.44,10.44,0,0,1,1,5.12c-.87,6.25-5.36,11.38-13,10-3.51-.62-5.73-3-7.07-6.13-.2-.47.29-1.24.45-1.86a15.09,15.09,0,0,1,1.59.71,28.51,28.51,0,0,0,4.44,2.66c2,.76,4.92-1.07,5.7-3.11,1.51-4-1.1-8-3.86-9.34A21.16,21.16,0,0,1,264,181a1.67,1.67,0,0,0-2.44-.67c-2.17,1-4.41,1.9-6.6,2.86-3.61,1.58-7.19,3.21-10.81,4.77-1.07.46-1.17,1-.61,2,1.25,2.17,2.47,4.37,3.62,6.6,2.48,4.77,4.87,9.6,7.37,14.36,3.46,6.61,7,13.15,10.44,19.78.67,1.31,1.57,1.55,2.54,1,2.6-1.36,5.45-1.39,8.22-1.79,3.4-.5,6-2,7-5.45,1.27-4.15-1.68-7.19-5-6.78-1.19.15-2.36.5-3.55.66a13.07,13.07,0,0,1-2.07-.07c.17-.68.32-1.36.55-2a1.36,1.36,0,0,1,.54-.58,10.67,10.67,0,0,1,9.35-2c6.62,1.68,10.49,11.2,4.48,18-1.07,1.21-1.06,1.93-.23,3.27,3.1,5,2.55,8.76-1.53,12.59-.61.57-1.76.58-2.65.85.22-.79.42-1.59.67-2.37.14-.41.4-.76.56-1.16a5.29,5.29,0,0,0-3.58-7.46,7.55,7.55,0,0,0-8.4,2.36,2.23,2.23,0,0,0-.34,3c1.27,2.27,2.49,4.58,3.63,6.93a2.77,2.77,0,0,0,2.86,1.78C287.19,251.46,296.31,251.49,305.43,251.49ZM336.3,407v0q13.11,0,26.23,0a6.65,6.65,0,0,0,1.59-.41,7.12,7.12,0,0,0-.64-1.69c-1-1.5-2.1-3-3.21-4.41-3.89-5-7.84-10-11.7-15.08-8.48-11.09-16.9-22.22-25.38-33.31-5.36-7-10.77-14-16.15-21-1.42-1.84-1.63-1.85-3,0l-17.34,22.68q-7.15,9.36-14.32,18.72-12.36,16.11-24.7,32.23a8.76,8.76,0,0,0-.78,1.82,8.7,8.7,0,0,0,1.88.45q31.62,0,63.22,0ZM107.89,295.41c6.72.34,11.91-5.56,11.79-11.71a11.71,11.71,0,0,0-23.42-.1C96.33,290.57,101.39,295.56,107.89,295.41Zm395.15,0c6.33.21,11.59-4.55,11.73-11.7a11.71,11.71,0,0,0-23.42-.11C491.17,289.68,496.3,295.7,503,295.41ZM315.9,680.3c0-6.65-4.77-11-10.45-11s-10.36,4.43-10.32,11.14a10.39,10.39,0,0,0,20.77-.15Z" transform="translate(-48.26 -133.96)"/><path class="cls-1" d="M309.38,298.93c0-8.26,0-16.53,0-24.79a2.94,2.94,0,0,1,1.46-2.77,8.56,8.56,0,0,0,4.08-5.69c.24-1.35,1.22-1.68,2.51-1.68,8.1,0,16.2,0,24.31.06,1.89,0,3.21-.45,4.18-2.22,2.78-5.06,5.71-10,8.58-15,3.08-5.37,6.18-10.72,9.24-16.1,1.39-2.46,2.71-5,4-7.46.75-1.43,1.59-2.4,3.47-1.73,3.35,1.19,6.75,2.26,10.14,3.32,4.46,1.41,8.93,2.76,13.39,4.14,3.9,1.22,7.8,2.43,11.7,3.67,7.13,2.27,14.26,4.58,21.4,6.82,3.5,1.1,7,2,10.54,3.12,4.8,1.52,9.57,3.16,14.37,4.7,5.46,1.75,10.94,3.45,16.42,5.15,4,1.24,8,2.45,12,3.67.3.09.62.15.93.21,2.12.45,2.29,1.15.93,2.88q-7.74,9.94-15.4,19.94c-.95,1.23-.56,2.44.27,3.54a118.62,118.62,0,0,1,14.75,25.58,66.11,66.11,0,0,1,2.12,6.66c.52,1.75,1.4,2.23,3.07,1.83,3.62-.87,7.25-1.65,10.87-2.46,4.51-1,9-2,13.53-3,1.36-.31,2,0,2,1.41-.15,3.14-.45,6.28-.65,9.42-.16,2.57-.21,5.14-.41,7.7-.31,4-.71,8-1.06,11.95-.18,2-.29,4.05-.54,6.06-.64,5.13-1.29,10.26-2,15.37-1,6.9-2,13.81-3.16,20.69s-2.59,13.47-3.89,20.21c-.63,3.23-1.19,6.48-1.89,9.7-.57,2.64-1.31,5.25-2,7.88-.56,2.26-1.07,4.54-1.69,6.79q-2.19,7.91-4.47,15.79c-1.36,4.74-2.64,9.51-4.19,14.19-1.44,4.38-3.15,8.67-4.79,13-2,5.22-4,10.44-6.06,15.62-1.45,3.59-3,7.15-4.63,10.64-2.07,4.39-4.15,8.77-6.47,13-3.34,6.13-6.84,12.18-10.39,18.19a102.43,102.43,0,0,1-6.24,9.69c-4.48,6-9.18,11.81-13.79,17.71a1.46,1.46,0,0,1-2.33.27c-5.8-4.09-11.64-8.14-17.44-12.23-2.43-1.72-3.35-1.57-5.18.79q-8.06,10.39-16.18,20.73c-1.2,1.54-1.8,2.91-.88,5.08,2.95,6.94,5.58,14,8.25,21.08a2.93,2.93,0,0,1-.22,2.36c-4.87,6.77-9.7,13.59-15.71,19.45-5.59,5.45-10.89,11.23-16.71,16.41-5.54,4.93-11.53,9.37-17.45,13.87-3.35,2.55-6.93,4.8-10.44,7.14-1.4.93-2,.78-2.61-.7-2.1-5.1-4.14-10.22-6.2-15.33-1.67-4.14-3.34-8.27-5-12.41a2.9,2.9,0,0,0-2.92-2.06c-.86,0-1.72,0-2.58,0H287.73c-3.46,0-3.84.18-5.12,3.42-1.64,4.14-3.12,8.34-4.78,12.47-1.47,3.64-3.1,7.21-4.64,10.82-.43,1-.75,2.1-1.17,3.14-.49,1.24-1.3,1.66-2.49.81-5.53-3.93-11.11-7.77-16.56-11.81a126.07,126.07,0,0,1-10.72-8.67c-5.8-5.38-11.33-11.06-17-16.56-5.52-5.36-10-11.56-14.6-17.69a14.27,14.27,0,0,1-1.64-2.36,3.07,3.07,0,0,1-.22-2.11c2.47-6.34,5-12.64,7.56-19a17.72,17.72,0,0,0,1.24-3.61,3.65,3.65,0,0,0-.56-2.5c-2.44-3.32-5-6.53-7.53-9.78-3.12-4-6.25-8-9.32-12-1.9-2.51-2.85-2.65-5.41-.83-5.75,4.07-11.55,8.07-17.31,12.13-.92.65-1.62.65-2.33-.25-3.16-4-6.36-7.93-9.51-11.91-6.16-7.77-11.25-16.25-16.14-24.82-3.77-6.61-7-13.52-10.41-20.33-1.75-3.51-3.43-7.07-5-10.68-1.66-3.92-3.12-7.92-4.65-11.89-1.72-4.46-3.51-8.89-5.1-13.4-1.19-3.39-2.09-6.88-3.12-10.33-1.29-4.27-2.61-8.54-3.85-12.83-1.54-5.35-3.08-10.71-4.49-16.1-1-3.69-1.8-7.43-2.57-11.17q-2.41-11.71-4.67-23.46-1.43-7.44-2.62-14.94c-.73-4.63-1.34-9.29-2-13.94-.38-3-.65-5.94-1-8.91-.36-3.17-.77-6.34-1.09-9.51-.42-4.19-.84-8.39-1.15-12.59-.41-5.38-.73-10.76-1-16.15-.13-2.21.38-2.44,2.55-1.91,3,.74,6.13,1.27,9.2,1.9,2.13.44,4.27.87,6.39,1.38,2.79.66,5.55,1.4,8.33,2.1a2.11,2.11,0,0,0,2.89-1.72c2.69-10.19,7.83-19.17,13.69-27.81,1.11-1.63,2.29-3.22,3.4-4.85a2.79,2.79,0,0,0-.19-3.66c-5.2-6.66-10.36-13.36-15.53-20-.89-1.14-.63-1.85.87-2.3,5.79-1.74,11.61-3.41,17.38-5.22s11.49-3.85,17.26-5.65c8.31-2.59,16.67-5,25-7.6,5-1.54,9.89-3.27,14.86-4.82,4.71-1.47,9.47-2.77,14.18-4.23,5.42-1.69,10.82-3.47,16.23-5.21,2.43-.77,4.84-1.58,7.3-2.23a2.09,2.09,0,0,1,1.81.62c1.23,1.87,2.28,3.85,3.39,5.79q4.65,8.15,9.28,16.27c3.11,5.48,6.25,10.94,9.26,16.47,1.29,2.37,2.78,3.6,5.77,3.5,7.82-.26,15.66-.07,23.5-.11a2.28,2.28,0,0,1,2.61,2.14,8.56,8.56,0,0,0,4.1,5.32,2.66,2.66,0,0,1,1.34,2.51c0,16.64,0,33.27-.08,49.91a6.52,6.52,0,0,1-1.52,3.36c-3.71,5-7.49,9.87-11.29,14.77-6.16,8-12.38,15.86-18.52,23.84-4.82,6.26-9.54,12.61-14.34,18.9-3.9,5.1-8,10.08-11.72,15.28a23.66,23.66,0,0,1-7.59,6.94c-4.3,2.46-8.42,5.24-12.69,7.76a4.07,4.07,0,0,1-2.81.35,8.22,8.22,0,0,0-10,5c-1.72,4.25.84,9,4.7,10.56a8.1,8.1,0,0,0,10.86-6.82,2.24,2.24,0,0,1,.9-1.51c3.5-2.25,7.2-4.21,10.55-6.66,3-2.2,6.16-2.61,9.75-2.6,39.66.07,79.31,0,119,0a6.8,6.8,0,0,1,3.28.94c4.49,2.68,8.91,5.46,13.32,8.27a2.31,2.31,0,0,1,.91,1.51,8,8,0,0,0,7.85,7.32,8.18,8.18,0,1,0-.23-16.36c-.06,0-.12,0-.16,0-3.42,1.67-5.89-.6-8.46-2.15q-6.23-3.77-12.3-7.79a12.87,12.87,0,0,1-2.87-3c-6.27-8.21-12.46-16.47-18.73-24.67-5.27-6.88-10.63-13.69-15.92-20.55-4.34-5.63-8.63-11.31-13-16.95-3.44-4.49-6.94-8.95-10.35-13.47a4.47,4.47,0,0,1-.81-2.47C309.36,315.46,309.38,307.2,309.38,298.93Zm42.95-11.85c-11,.06-18.77,4-25,11.1a19.43,19.43,0,0,0-4.71,10.48c-.09.68.26,1.91.68,2a3.18,3.18,0,0,0,2.28-.56c2.53-1.57,4.92-3.38,7.5-4.87a15.09,15.09,0,0,1,9.37-2,18.13,18.13,0,0,1,4.13.9c3.23,1.18,5.22,3.86,7.19,6.44,2.84,3.7,4.9,7.78,4.65,12.63-.11,2.17,0,4.3-.88,6.46a30.16,30.16,0,0,1-5.73,8.59,1.76,1.76,0,0,0-.11,2.55q9.87,13.35,19.7,26.71c3,4.14,6.12,8.25,9.15,12.39,4.74,6.47,9.45,12.95,14.19,19.42a2.48,2.48,0,0,0,3.21,1c1.52-.6,3.11-1,4.65-1.59a24,24,0,0,1,12.19-.95A21.59,21.59,0,0,1,429,407.14c3.07,4.36,4.57,9.34,5.91,14.39.47,1.79,1.18,2.16,2.9,1.48,2.56-1,5.12-2.06,7.69-3.07,5.39-2.12,10.79-4.21,16.17-6.36,6.21-2.48,12.4-5,18.59-7.53,4.44-1.8,8.85-3.64,13.29-5.43a2.75,2.75,0,0,0,1.75-3.35c-.39-2.69-.58-5.43-1.15-8.08-1.3-6.07-2.67-12.13-4.23-18.14-.87-3.32-2.16-6.54-3.31-9.78-1-2.81-1.87-5.66-3.09-8.36q-3.16-7-6.71-13.75c-2.19-4.2-4.44-8.4-7-12.39a183.4,183.4,0,0,0-24.72-30.89,191,191,0,0,0-25.61-21.65c-5.24-3.68-10.68-7.09-16.11-10.47-2.94-1.83-6-3.4-9.13-5-.55-.28-1.36,0-2,0a6.16,6.16,0,0,0,1,1.57c3.59,2.95,7.42,5.64,10.81,8.8,5,4.67,9.8,9.59,14.53,14.55a124.73,124.73,0,0,1,8.72,10.08,219.54,219.54,0,0,1,15.86,22.74c4.33,7.4,8.72,14.78,12,22.71,3.66,8.71,7.56,17.33,10,26.51.91,3.49,1.94,6.95,2.89,10.43a1.62,1.62,0,0,1-1.22,2.12c-3.76,1.13-7.55,2.15-11.3,3.33-1.6.51-2.52,0-3.5-1.26a44,44,0,0,0-18.95-14.57,39.55,39.55,0,0,0-11.28-2.65,45.7,45.7,0,0,0-16.68,1.23c-2.88.8-3.77.67-5.27-1.41-4.1-5.67-8.19-11.35-12.32-17-2.2-3-4.51-6-6.67-9a3.06,3.06,0,0,1-.42-2.17c.58-2.75,1.68-5.42,1.93-8.18.53-5.91.76-11.82-1-17.65-1.22-4-2.87-7.87-5.74-10.91C368.94,291,360.69,287.21,352.33,287.08ZM259.67,287a66.2,66.2,0,0,0-7.09,1,36,36,0,0,0-13,6.22c-6.71,5-10,11.93-10.92,20a61.84,61.84,0,0,0,0,11.86c.22,2.82,1.24,5.57,1.78,8.38a3.59,3.59,0,0,1-.26,2.46c-1.42,2.13-3.08,4.09-4.59,6.17q-7.26,10-14.47,20a3.59,3.59,0,0,1-4.25,1.56A71.77,71.77,0,0,0,196.15,363c-4.79-.31-9.63-.15-14.22,1.56a64.3,64.3,0,0,0-10.09,4.27,41,41,0,0,0-13.22,12,2.08,2.08,0,0,1-2.62.9c-3.9-1.22-7.86-2.26-11.78-3.42A1.62,1.62,0,0,1,143,376.2c1.13-4.31,2.2-8.64,3.48-12.9.94-3.14,2.08-6.24,3.3-9.28,3.76-9.38,7.45-18.79,12.45-27.63a260.27,260.27,0,0,1,14.66-23.49A213.38,213.38,0,0,1,195,280.83a176.15,176.15,0,0,1,22.9-20.57c.44-.32.64-1,1-1.46-.64-.05-1.39-.35-1.9-.12a49.27,49.27,0,0,0-5.42,2.76,269.72,269.72,0,0,0-25.9,17.13,190.57,190.57,0,0,0-21.23,18.9,196.63,196.63,0,0,0-15.59,18.33,182.85,182.85,0,0,0-19.29,32.54c-2.09,4.51-3.7,9.26-5.37,14a139.06,139.06,0,0,0-4.68,14.5c-1.56,6.73-2.52,13.6-3.73,20.41a2.76,2.76,0,0,0,1.84,3.44c6.56,2.63,13.1,5.31,19.65,8,5.07,2.05,10.13,4.11,15.2,6.13Q163,419,173.62,423.14a1.64,1.64,0,0,0,2.45-1.24c.57-1.94,1-3.91,1.66-5.83,2.84-8.67,7.74-15.41,17.08-17.88a23.84,23.84,0,0,1,11.11-.09,46.82,46.82,0,0,1,7,2.2,2.74,2.74,0,0,0,3.58-1.15c1.46-2,2.94-4.06,4.42-6.09q10.17-13.92,20.35-27.83,8.6-11.7,17.24-23.35c1.72-2.33,1.73-2.32,0-4.55-.16-.21-.34-.41-.52-.61-3.16-3.5-5.45-7.41-5.3-12.3a29.72,29.72,0,0,1,.68-6.33c.85-3.42,2.95-6.22,5.11-8.95,2-2.58,4.4-5,7.57-5.65a16.51,16.51,0,0,1,12.21,1.91c2.49,1.52,4.86,3.27,7.34,4.82a2.79,2.79,0,0,0,2.14.52,2.47,2.47,0,0,0,.74-2,17.08,17.08,0,0,0-2.94-8C279.44,291.8,270.86,287.51,259.67,287ZM382.59,483.52v.13h-4.67c-3.84,0-4.08-.28-3.74-4.19a1.71,1.71,0,0,1,1.75-1.83c4-.41,8.09-.86,12.12-1.4q12.85-1.71,25.72-3.53c4.21-.6,8.43-1.21,12.61-2,3.61-.65,7.18-1.47,10.75-2.29,4-.9,8-1.65,11.89-2.9a18.92,18.92,0,0,0,6.33-3.54c3.83-3.28,5.2-8,6.23-12.72a59.5,59.5,0,0,0,1.55-14.46,15.41,15.41,0,0,0-.7-3c-.76.39-1.55.75-2.29,1.18-4.15,2.4-8.26,4.86-12.44,7.2a135.07,135.07,0,0,1-19.31,8.63q-11.06,4.07-22.25,7.76c-5.19,1.72-10.44,3.25-15.7,4.72-5.63,1.57-11.31,3-16.95,4.48a1.65,1.65,0,0,1-2.33-1.13c-1.54-3.55-3.1-7.11-4.93-10.51-1.94-3.63-4.54-6.76-8.44-8.5a1.72,1.72,0,0,0-1.53.1,1.68,1.68,0,0,0-.05,1.52A57.58,57.58,0,0,1,361,460.91a41.88,41.88,0,0,1-.15,20.63A20.65,20.65,0,0,1,350,495.11c-4.64,2.36-9.63,3-14.74,3.2-5.36.19-8.22,2.94-8.57,8.3-.26,4.12,2.57,8.93,6.47,9.67,3.14.6,6.5.23,9.75,0,1.76-.1,2.11-.13,2.57,1.67.55,2.16.85,4.4,1.6,6.49a38.44,38.44,0,0,0,3.73,8.4c2.51,3.75,6.87,4.86,10.95,6.11,2.83.87,5.73,1.55,8.63,2.16a18.77,18.77,0,0,0,4.11.18c.39,0,.76-.47,1.14-.72a6.09,6.09,0,0,0-.8-1.07,21.22,21.22,0,0,1-2.92-2.46c-2.84-3.61-5.7-7.21-8.24-11s-4.67-7.64-6.85-11.54c-1.36-2.43-.71-3.12.87-4a18.77,18.77,0,0,0,2.6-1.87c1-.81,1.78-.54,2.61.35,1.58,1.67,3.22,3.28,4.88,4.87,4.93,4.75,9.89,9.49,15.72,13.15,3.55,2.22,7.28,4.11,11.67,3.6,2.46-.29,4.95-.31,7.31-1.47,3.75-1.83,7.65-3.35,11.42-5.14.73-.35,1.75-1.64,1.57-2a4.16,4.16,0,0,0-2.2-1.93c-4.14-1.63-8.38-3-12.51-4.66-2.82-1.11-5.54-2.46-8.28-3.76-6.93-3.28-14-6.19-20.48-10.43-3.49-2.28-3.55-1.49-.81-5.57A2.09,2.09,0,0,1,373,495c2.87.52,5.7,1.29,8.58,1.77,6,1,12,2,18,2.76,8,1.06,16,2.25,24.12,2.1a16.42,16.42,0,0,0,11.39-4.73,48.14,48.14,0,0,0,10.78-16.33,2.43,2.43,0,0,0-.06-2.05,2.5,2.5,0,0,0-2-.46c-3.64.5-7.25,1.22-10.9,1.65-5.24.62-10.51,1.05-15.77,1.58-3.34.33-6.68.76-10,1q-8.72.66-17.44,1.15C387.31,483.63,385,483.52,382.59,483.52Zm-110.4,33.16v-.12l1.93.13a9.24,9.24,0,0,0,9.65-6.37c2.31-7-2.34-12.35-8.1-12.07a31.48,31.48,0,0,1-7.65-.79c-10.75-2.21-16.5-8.32-18.47-18.32-2.19-11.11.25-21.61,5.14-31.65a5.47,5.47,0,0,0,.19-1.74c-.63,0-1.36-.24-1.87,0a15.2,15.2,0,0,0-7,6.46c-2.25,4.08-4.22,8.31-6.2,12.54a1.61,1.61,0,0,1-2.24,1.07c-2.65-.75-5.32-1.49-8-2.2-6.11-1.63-12.24-3.15-18.32-4.88-3.72-1.05-7.35-2.41-11-3.66-4.87-1.67-9.78-3.26-14.59-5.08-7.15-2.7-14.35-5.33-21-9.11-5-2.83-9.91-5.81-14.84-8.76-1-.6-1.69-.46-1.77.69-.12,1.81-.05,3.63,0,5.45A49.05,49.05,0,0,0,152,456.91a14.66,14.66,0,0,0,9.76,8.65c3.83,1.05,7.72,1.88,11.62,2.69,4.46.93,8.94,1.78,13.44,2.58,5.34.95,10.7,1.89,16.07,2.69,6,.89,12.07,1.65,18.11,2.43,4.24.55,8.5,1,12.74,1.56,3.22.45,3.2.54,3.13,4,0,2-.27,2.25-2.23,2.17-8.28-.32-16.57-.69-24.85-1-2.84-.11-5.7,0-8.51-.31-6-.63-12-1.44-17.95-2.18-5.34-.67-10.67-1.38-16-2a2.77,2.77,0,0,0-2.1.52,2.37,2.37,0,0,0,0,2,48.66,48.66,0,0,0,10.58,16.09,15.6,15.6,0,0,0,11.64,4.85c4.75-.17,9.5-.5,14.24-.92,4.1-.36,8.19-.88,12.27-1.45,4.43-.62,8.85-1.36,13.26-2.11,3.36-.57,6.75-1.05,10-1.91,1.63-.43,2.53-.13,3.27,1.23a12.77,12.77,0,0,0,.88,1.52,1.21,1.21,0,0,1-.4,2c-3.49,2.05-6.93,4.21-10.52,6.05-4.45,2.29-9,4.37-13.58,6.41-3.78,1.69-7.62,3.23-11.47,4.76-2.76,1.09-5.6,2-8.35,3.09a2.78,2.78,0,0,0-1.55,1.59,2.23,2.23,0,0,0,1,1.78c5.46,3.23,11.11,5.83,17.52,6.79,5.09.76,9.39-.73,13.43-3.37,7.75-5.06,14.36-11.47,20.72-18.13a1.68,1.68,0,0,1,2.63-.24c.84.67,1.71,1.3,2.59,1.89,1.74,1.18,2,1.9.93,3.7-3.77,6.19-7.48,12.43-11.51,18.45-1.61,2.4-4,4.28-6,6.41-.48.5-.93,1-1.39,1.52a17.07,17.07,0,0,0,2.14.86,3.05,3.05,0,0,0,1.43-.11,25.33,25.33,0,0,1,3.83-1.05c3.38-.31,6.5-1.52,9.71-2.48,6.74-2,9.93-6.93,11.46-13.34q.82-3.41,1.59-6.82c.23-1,.7-1.68,1.85-1.57Zm25.42,62.58a8.45,8.45,0,0,0,.48,1.69c1.87,3.1,3.69,6.22,5.71,9.22,1.17,1.75,2.3,1.72,3.5-.07q2.82-4.15,5.32-8.52c1.17-2.05.81-3.48-.85-5.18-.33-.34-.81-.68-.9-1.09-.83-3.81-2.35-7.63.91-11.18a13.81,13.81,0,0,0,2.66-4.35c1.09-2.92-.07-5.44-2.33-7.28-1.85-1.52-2.52-3.1-1.78-5.42.52-1.66.53-3.47,1.06-5.12a11.32,11.32,0,0,1,4.91-5.76c4.25-2.83,8.61-5.51,12.94-8.24,1.62-1,1.71-1.76.1-2.77-2.12-1.33-4.35-2.49-6.48-3.82a2.71,2.71,0,0,1-1.18-1.53c-.44-2.07-.73-4.17-1-6.27a16.34,16.34,0,0,0-3.73-8c-3.52-4.39-8.18-7.9-10.37-13.36-.47-1.17-1.63-1.12-2.15.08-1.81,4.11-4.7,7.34-7.86,10.43a23.67,23.67,0,0,0-7.19,16.59,3.1,3.1,0,0,1-1.29,2.1c-2.13,1.41-4.43,2.57-6.59,3.93-1.33.84-1.23,1.66.13,2.5,3.76,2.33,7.56,4.59,11.25,7,2.63,1.73,5.39,3.48,6.51,6.63.68,1.93.73,4.07,1.37,6s0,3.39-1.54,4.73c-2.17,1.85-3.68,4.15-2.69,7.18a13.78,13.78,0,0,0,1.9,3.49c1.87,2.64,3.79,5.23,2.59,8.77-.2.6-.16,1.3-.41,1.87-.48,1.08-1.08,2.11-1.63,3.16S298,578.52,297.61,579.26Zm35.15,8.59c-5.47.19-9.83.67-13.91,2.61a7.24,7.24,0,0,0-3.75,8.68c.89,3.43,5.56,5.66,8.78,5.89,1.6.11,3.23-.07,4.83.05a3.06,3.06,0,0,1,1.89.9,38.92,38.92,0,0,1,2.67,3.78q5,7.54,9.94,15.11c.66,1,1.39,1,2.25.27,2.1-1.89,4.33-3.66,6.3-5.69,3.17-3.26,6.31-6.56,9.19-10.07,4.47-5.45,8.91-10.94,13-16.7,3.43-4.89,6-10.3,6.63-16.42,0-.58-.19-1.55-.57-1.72a2.08,2.08,0,0,0-1.84.42c-1.92,1.93-3.65,4-5.57,6-4.12,4.12-8.35,8.14-12.48,12.26a54,54,0,0,1-10.56,8.54c-1.52.9-2.52.6-3.46-.8-1.89-2.83-4-5.53-5.74-8.45C338.32,589.12,335.94,586.91,332.76,587.85Zm-47.9,17.2.11.43c2.25-.58,4.54-1,6.71-1.77,3.51-1.25,5.28-5.68,4.53-8.27-1.11-3.87-4-5.52-7.52-6.34a44.12,44.12,0,0,0-12.4-1.17,4.34,4.34,0,0,0-3.66,1.9c-2.33,3.38-4.62,6.78-7,10.12-2.18,3-1.9,3-5.31,1-.14-.08-.26-.19-.39-.28-5.86-3.83-10.57-9-15.65-13.72-4-3.71-7.47-8-11.24-11.88a2.77,2.77,0,0,0-2-.59c-.24,0-.66,1-.6,1.53a30.14,30.14,0,0,0,2.69,9.62c3.11,6.77,7.77,12.51,12.3,18.31,3,3.83,6.32,7.4,9.68,10.92S262,621.65,265.43,625c.82.8,1.6,1.07,2.37-.09,3.85-5.83,7.76-11.63,11.55-17.5,1.08-1.68,2.26-2.77,4.38-2.37A6.09,6.09,0,0,0,284.86,605.05Zm6.46-130.71.64.22c.66-.89,1.36-1.75,2-2.67.46-.71.77-1.51,1.17-2.26.63-1.15,1.4-.95,1.93,0,1.18,2.09,2.27,4.22,3.32,6.37,1.2,2.43,2.18,5,3.51,7.31,1.09,1.91,2.24,1.91,3.32,0,1.34-2.34,2.32-4.89,3.52-7.31,1.05-2.15,2.14-4.29,3.31-6.37.52-.92,1.29-1.18,1.93,0,.4.74.72,1.54,1.17,2.25.6.93,1.3,1.79,2.22,3a9.92,9.92,0,0,0,.68-1.68,29,29,0,0,1,.67-4.1,3.87,3.87,0,0,1,1.79-2.18,2.74,2.74,0,0,1,2.39.68c1.25,1.28,2.2,2.85,3.35,4.23a7.5,7.5,0,0,0,1.58,1.16,19.53,19.53,0,0,0,.83-1.88,1.54,1.54,0,0,0-.17-.92c-1.66-3.86-3.19-7.77-5-11.53a19.14,19.14,0,0,0-3.78-5.29,51,51,0,0,0-6.08-4.45c-3-2.1-5.57-4.45-6.5-8.18-.58-2.32-1.2-4.62-2-6.87a2.38,2.38,0,0,0-1.63-1.36c-.45,0-1.26.76-1.45,1.34-.56,1.65-.86,3.39-1.29,5.08a17.26,17.26,0,0,1-7.7,10.37c-2.94,1.95-6.23,3.63-8,7-.9,1.69-2,3.28-2.79,5-1.34,3-2.57,6.07-3.65,9.17-.24.67.34,1.63.55,2.45a15.16,15.16,0,0,0,1.92-1.53c1.17-1.3,2.12-2.82,3.37-4a2.41,2.41,0,0,1,4,1.38c.21.88.2,1.81.36,2.7S291.12,473.39,291.32,474.34Zm-37.69,86.15c-2.37.13-4.36.08-6.31.38-3.59.54-4.39,1.58-1.54,4.81,2.44,2.76,5.11,5.32,7.78,7.86a6.84,6.84,0,0,0,2.36,1c.22-.76.47-1.51.66-2.28.07-.3,0-.64,0-1a1.5,1.5,0,0,1,1.76-1.56c7.08.06,14.16.13,21.23,0,1.92,0,3.1.42,3.87,2.25.62,1.45,1.68,1.67,2.79.53a18.11,18.11,0,0,0,2.75-3.89c1.6-2.89.18-5.38-3.15-5.72-1.44-.15-2.88-.21-4.31-.36-.38,0-1-.2-1.07-.42a1.69,1.69,0,0,1,.28-1.3c2.43-3.18,4.79-6.42,7.4-9.45,2.22-2.57,3.81-5.19,3.25-8.77-.21-1.31-.71-2-2-1.94-1.55,0-3.12.12-4.66,0-1.89-.2-3,.71-3.91,2.19-3.68,5.87-7.36,11.73-11.14,17.54a2.73,2.73,0,0,1-2.05,1.11C262.82,561.22,258,560.81,253.63,560.49Zm87.83,9.27v0c3.76,0,7.51,0,11.26,0a1.45,1.45,0,0,1,1.71,1.44,13.8,13.8,0,0,0,0,1.44c.16.66.31,1.67.74,1.83a2.42,2.42,0,0,0,1.95-.58,36.82,36.82,0,0,0,4-3.69,78.38,78.38,0,0,0,5.34-6.33c.89-1.2.46-2-1-2.51a3.66,3.66,0,0,0-1.22-.34c-4.21,0-8.42-.11-12.62,0-2.88.07-5.75.45-8.62.56a2.19,2.19,0,0,1-1.56-.91c-2.51-3.76-5-7.57-7.39-11.39-1.4-2.21-2.63-4.53-4.14-6.66a4.48,4.48,0,0,0-2.58-1.81,28.07,28.07,0,0,0-5.94,0c-.59,0-1.63.72-1.64,1.13-.07,2.49-.69,5,1.3,7.29,3.21,3.71,6.12,7.69,9.11,11.58a2.16,2.16,0,0,1,.32,1.44c0,.17-.7.34-1.09.38-1.43.15-2.87.21-4.3.36-2.69.29-4.63,2.64-3.7,4.63a24.31,24.31,0,0,0,2.64,4.37c1.42,1.87,2.63,1.7,3.71-.39a2.88,2.88,0,0,1,3-1.78C334.38,569.86,337.93,569.76,341.46,569.76Z" transform="translate(-48.26 -133.96)"/><path class="cls-1" d="M305.43,251.49c-9.12,0-18.24,0-27.37,0a2.77,2.77,0,0,1-2.86-1.78c-1.14-2.35-2.36-4.66-3.63-6.93a2.23,2.23,0,0,1,.34-3,7.55,7.55,0,0,1,8.4-2.36,5.29,5.29,0,0,1,3.58,7.46c-.16.4-.42.75-.56,1.16-.25.78-.45,1.58-.67,2.37.89-.27,2-.28,2.65-.85,4.08-3.83,4.63-7.55,1.53-12.59-.83-1.34-.84-2.06.23-3.27,6-6.79,2.14-16.31-4.48-18a10.67,10.67,0,0,0-9.35,2,1.36,1.36,0,0,0-.54.58c-.23.65-.38,1.33-.55,2a13.07,13.07,0,0,0,2.07.07c1.19-.16,2.36-.51,3.55-.66,3.32-.41,6.27,2.63,5,6.78-1,3.41-3.61,4.95-7,5.45-2.77.4-5.62.43-8.22,1.79-1,.51-1.87.27-2.54-1-3.4-6.63-7-13.17-10.44-19.78-2.5-4.76-4.89-9.59-7.37-14.36-1.15-2.23-2.37-4.43-3.62-6.6-.56-1-.46-1.52.61-2,3.62-1.56,7.2-3.19,10.81-4.77,2.19-1,4.43-1.84,6.6-2.86A1.67,1.67,0,0,1,264,181a21.16,21.16,0,0,0,8.75,7.35c2.76,1.36,5.37,5.36,3.86,9.34-.78,2-3.69,3.87-5.7,3.11a28.51,28.51,0,0,1-4.44-2.66,15.09,15.09,0,0,0-1.59-.71c-.16.62-.65,1.39-.45,1.86,1.34,3.17,3.56,5.51,7.07,6.13,7.6,1.35,12.09-3.78,13-10a10.44,10.44,0,0,0-1-5.12c-.58-1.4-.22-2,.77-3a20,20,0,0,0,3.75-4.48c1.63-2.92.78-5.8-1-8.43a2.46,2.46,0,0,0-1.12-.87,4.15,4.15,0,0,0-1.33-.08,4.66,4.66,0,0,0,0,1.18c.53,2,.79,3.86-.41,5.7-2,3.09-6,2.73-8.89,1a9.9,9.9,0,0,1-2.93-3.28c-1-1.62-.82-2.15.91-3,2.26-1.07,4.56-2.06,6.85-3.05,4.85-2.09,9.71-4.13,14.55-6.24,3.36-1.48,6.67-3.08,10.05-4.54a2.49,2.49,0,0,1,1.8.06c6.63,2.94,13.22,5.95,19.85,8.9,3.55,1.57,7.14,3.07,10.73,4.55,2.43,1,2.63,1.64,1.36,3.9-1.83,3.27-5.2,4.16-8.2,3.86s-4.91-3.77-4-7.17a11.36,11.36,0,0,0,.13-2c-.82.4-1.88.59-2.4,1.22a8.33,8.33,0,0,0,.36,10.51,13.88,13.88,0,0,0,2.35,2.18c1.16.82,1.53,1.54.87,3a11,11,0,0,0,5.74,14.6c5,2,10.69.43,13.19-5.31.25-.56-.21-1.43-.34-2.15a7.42,7.42,0,0,0-1.65.88c-1.77,1.66-3.66,3-6.25,2.45-4.35-.88-5.31-5.66-3.27-9.05a11.15,11.15,0,0,1,3.67-3.42c3.21-2,6.32-4,8.41-7.29a1.61,1.61,0,0,1,2.3-.71c5.36,2.36,10.75,4.65,16.12,7,.54.23,1,.54,1.58.77.92.39,1,1,.53,1.79-3.63,6.88-7.21,13.79-10.85,20.67q-5,9.54-10.16,19c-1.52,2.81-1.49,2.63-4.54,1.61a30.7,30.7,0,0,0-6.41-1.18c-3.73-.43-6.46-2.36-7.34-5.48-1.19-4.16,1.7-7.18,5-6.77,1.19.15,2.36.51,3.55.66a11.08,11.08,0,0,0,2.07-.09c-.19-.67-.16-1.54-.59-2a9.5,9.5,0,0,0-7-3c-8,.08-11.54,8-9.91,13.52a17,17,0,0,0,2.85,5.11,2,2,0,0,1,.15,2.78,13.84,13.84,0,0,0-1.74,3.56c-1.33,4.08,1,8,4,9.94.44.28,1.16.13,1.75.18a8.11,8.11,0,0,0-.25-1.72,20.77,20.77,0,0,1-1.33-3c-.74-3.66,1.85-6.41,6.13-6.65a7.49,7.49,0,0,1,6.66,3.45,2.25,2.25,0,0,1,0,1.9c-1.27,2.64-2.66,5.21-4,7.82a2.48,2.48,0,0,1-2.5,1.34C323.89,251.47,314.66,251.49,305.43,251.49ZM302,185.91a6.19,6.19,0,0,0-6.3-6.27,6.52,6.52,0,0,0-6.16,6.41,6.6,6.6,0,0,0,6.58,6.18C299.65,192.08,301.9,189.44,302,185.91Zm13.28-6.27a6.12,6.12,0,0,0-6.25,6.3,6,6,0,0,0,5.9,6.29,6.61,6.61,0,0,0,6.55-6.22A6.53,6.53,0,0,0,315.29,179.64ZM296,229.27c-3.57-.52-6.33,3.2-6.2,6.06.16,3.37,2.39,6.17,6.2,6.17a6.06,6.06,0,0,0,6.09-6.42C302,232.59,299.68,228.76,296,229.27Zm19.13,12.24c3.81,0,6.05-2.83,6.18-6.19.11-3.14-2.89-6.28-5.9-6.1-3.65.21-6.44,2.57-6.41,5.88A6.15,6.15,0,0,0,315.09,241.51Z" transform="translate(-48.26 -133.96)"/><path class="cls-1" d="M336.3,407H312q-31.61,0-63.22,0a8.7,8.7,0,0,1-1.88-.45,8.76,8.76,0,0,1,.78-1.82q12.33-16.12,24.7-32.23,7.17-9.35,14.32-18.72L304,331.1c1.38-1.81,1.59-1.8,3,0,5.38,7,10.79,13.95,16.15,21,8.48,11.09,16.9,22.22,25.38,33.31,3.86,5,7.81,10,11.7,15.08,1.11,1.44,2.19,2.91,3.21,4.41a7.12,7.12,0,0,1,.64,1.69,6.65,6.65,0,0,1-1.59.41q-13.11,0-26.23,0Zm-57.21-3h0c7.08,0,14.16,0,21.24,0,.77,0,2.1-.39,2.18-.78a4.87,4.87,0,0,0-.67-2.59,10.21,10.21,0,0,0-1.3-1.81q-6.1-8-12.21-15.92c-2.61-3.38-5.25-6.74-7.87-10.13-.9-1.17-1.77-1-2.62,0s-1.61,2-2.4,3c-6.39,8.3-12.79,16.59-19.12,24.94a3.35,3.35,0,0,0-.53,2.49c.09.4,1.33.74,2,.75C264.92,404,272,404,279.09,404Zm52.77,0h0c7.09,0,14.17,0,21.25,0,.74,0,2.09-.4,2.1-.65a4.61,4.61,0,0,0-.66-2.77c-4.74-6.33-9.58-12.59-14.4-18.86-2.21-2.89-4.43-5.77-6.69-8.61-1.21-1.53-1.79-1.56-3-.14-1.41,1.6-2.75,3.27-4.05,5-5.73,7.53-11.46,15.07-17.11,22.66a4.17,4.17,0,0,0-.7,2.71c0,.3,1.44.69,2.22.7C317.81,404.05,324.84,404,331.86,404ZM305.55,369.5c7,0,14,0,21.06,0,.8,0,2.14-.4,2.28-.89a3.61,3.61,0,0,0-.74-2.53c-1.09-1.58-2.41-3-3.59-4.53q-8.67-11.31-17.33-22.64c-1.21-1.58-2.22-1.56-3.47.05-2.6,3.32-5.17,6.67-7.74,10-4.37,5.67-8.76,11.33-13.07,17.05a4,4,0,0,0-.78,2.67c.05.39,1.5.8,2.32.81C291.51,369.52,298.53,369.49,305.55,369.5Z" transform="translate(-48.26 -133.96)"/><path class="cls-1" d="M107.89,295.41c-6.5.15-11.56-4.84-11.63-11.81a11.71,11.71,0,0,1,23.42.1C119.8,289.85,114.61,295.75,107.89,295.41Z" transform="translate(-48.26 -133.96)"/><path class="cls-1" d="M503,295.41c-6.74.29-11.87-5.73-11.69-11.81a11.71,11.71,0,0,1,23.42.11C514.63,290.86,509.37,295.62,503,295.41Z" transform="translate(-48.26 -133.96)"/><path class="cls-1" d="M315.9,680.3a10.39,10.39,0,0,1-20.77.15c0-6.71,4.64-11.09,10.32-11.14S315.89,673.65,315.9,680.3Z" transform="translate(-48.26 -133.96)"/><path d="M352.33,287.08c8.36.13,16.61,3.88,23.3,10.93,2.87,3,4.52,6.87,5.74,10.91,1.78,5.83,1.55,11.74,1,17.65-.25,2.76-1.35,5.43-1.93,8.18a3.06,3.06,0,0,0,.42,2.17c2.16,3.05,4.47,6,6.67,9,4.13,5.65,8.22,11.33,12.32,17,1.5,2.08,2.39,2.21,5.27,1.41a45.7,45.7,0,0,1,16.68-1.23,39.55,39.55,0,0,1,11.28,2.65,44,44,0,0,1,18.95,14.57c1,1.3,1.9,1.77,3.5,1.26,3.75-1.18,7.54-2.2,11.3-3.33a1.62,1.62,0,0,0,1.22-2.12c-.95-3.48-2-6.94-2.89-10.43-2.41-9.18-6.31-17.8-10-26.51-3.33-7.93-7.72-15.31-12-22.71a219.54,219.54,0,0,0-15.86-22.74,124.73,124.73,0,0,0-8.72-10.08c-4.73-5-9.52-9.88-14.53-14.55-3.39-3.16-7.22-5.85-10.81-8.8a6.16,6.16,0,0,1-1-1.57c.69,0,1.5-.26,2,0,3.08,1.58,6.19,3.15,9.13,5,5.43,3.38,10.87,6.79,16.11,10.47a191,191,0,0,1,25.61,21.65,183.4,183.4,0,0,1,24.72,30.89c2.54,4,4.79,8.19,7,12.39q3.54,6.78,6.71,13.75c1.22,2.7,2.11,5.55,3.09,8.36,1.15,3.24,2.44,6.46,3.31,9.78,1.56,6,2.93,12.07,4.23,18.14.57,2.65.76,5.39,1.15,8.08a2.75,2.75,0,0,1-1.75,3.35c-4.44,1.79-8.85,3.63-13.29,5.43-6.19,2.52-12.38,5.05-18.59,7.53-5.38,2.15-10.78,4.24-16.17,6.36-2.57,1-5.13,2-7.69,3.07-1.72.68-2.43.31-2.9-1.48-1.34-5-2.84-10-5.91-14.39a21.59,21.59,0,0,0-14.21-9.33,24,24,0,0,0-12.19.95c-1.54.55-3.13,1-4.65,1.59a2.48,2.48,0,0,1-3.21-1c-4.74-6.47-9.45-12.95-14.19-19.42-3-4.14-6.1-8.25-9.15-12.39q-9.84-13.35-19.7-26.71a1.76,1.76,0,0,1,.11-2.55,30.16,30.16,0,0,0,5.73-8.59c.86-2.16.77-4.29.88-6.46.25-4.85-1.81-8.93-4.65-12.63-2-2.58-4-5.26-7.19-6.44a18.13,18.13,0,0,0-4.13-.9,15.09,15.09,0,0,0-9.37,2c-2.58,1.49-5,3.3-7.5,4.87a3.18,3.18,0,0,1-2.28.56c-.42-.13-.77-1.36-.68-2a19.43,19.43,0,0,1,4.71-10.48C333.56,291.12,341.31,287.14,352.33,287.08Z" transform="translate(-48.26 -133.96)"/><path d="M259.67,287c11.19.54,19.77,4.83,25.8,13.74a17.08,17.08,0,0,1,2.94,8,2.47,2.47,0,0,1-.74,2,2.79,2.79,0,0,1-2.14-.52c-2.48-1.55-4.85-3.3-7.34-4.82A16.51,16.51,0,0,0,266,303.49c-3.17.67-5.53,3.07-7.57,5.65-2.16,2.73-4.26,5.53-5.11,8.95a29.72,29.72,0,0,0-.68,6.33c-.15,4.89,2.14,8.8,5.3,12.3.18.2.36.4.52.61,1.76,2.23,1.75,2.22,0,4.55q-8.63,11.67-17.24,23.35-10.2,13.89-20.35,27.83c-1.48,2-3,4.05-4.42,6.09a2.74,2.74,0,0,1-3.58,1.15,46.82,46.82,0,0,0-7-2.2,23.84,23.84,0,0,0-11.11.09c-9.34,2.47-14.24,9.21-17.08,17.88-.63,1.92-1.09,3.89-1.66,5.83a1.64,1.64,0,0,1-2.45,1.24Q163,419,152.43,414.76c-5.07-2-10.13-4.08-15.2-6.13-6.55-2.66-13.09-5.34-19.65-8a2.76,2.76,0,0,1-1.84-3.44c1.21-6.81,2.17-13.68,3.73-20.41a139.06,139.06,0,0,1,4.68-14.5c1.67-4.71,3.28-9.46,5.37-14a182.85,182.85,0,0,1,19.29-32.54,196.63,196.63,0,0,1,15.59-18.33,190.57,190.57,0,0,1,21.23-18.9,269.72,269.72,0,0,1,25.9-17.13,49.27,49.27,0,0,1,5.42-2.76c.51-.23,1.26.07,1.9.12-.32.5-.52,1.14-1,1.46A176.15,176.15,0,0,0,195,280.83a213.38,213.38,0,0,0-18.14,22.07,260.27,260.27,0,0,0-14.66,23.49c-5,8.84-8.69,18.25-12.45,27.63-1.22,3-2.36,6.14-3.3,9.28-1.28,4.26-2.35,8.59-3.48,12.9a1.62,1.62,0,0,0,1.26,2.09c3.92,1.16,7.88,2.2,11.78,3.42a2.08,2.08,0,0,0,2.62-.9,41,41,0,0,1,13.22-12,64.3,64.3,0,0,1,10.09-4.27c4.59-1.71,9.43-1.87,14.22-1.56a71.77,71.77,0,0,1,10.71,1.63,3.59,3.59,0,0,0,4.25-1.56q7.2-10,14.47-20c1.51-2.08,3.17-4,4.59-6.17a3.59,3.59,0,0,0,.26-2.46c-.54-2.81-1.56-5.56-1.78-8.38a61.84,61.84,0,0,1,0-11.86c.9-8.08,4.21-15,10.92-20a36,36,0,0,1,13-6.22A66.2,66.2,0,0,1,259.67,287Z" transform="translate(-48.26 -133.96)"/><path d="M382.59,483.52c2.36,0,4.72.11,7.08,0q8.71-.48,17.44-1.15c3.34-.26,6.68-.69,10-1,5.26-.53,10.53-1,15.77-1.58,3.65-.43,7.26-1.15,10.9-1.65a2.5,2.5,0,0,1,2,.46,2.43,2.43,0,0,1,.06,2.05,48.14,48.14,0,0,1-10.78,16.33,16.42,16.42,0,0,1-11.39,4.73c-8.12.15-16.11-1-24.12-2.1-6-.79-12-1.76-18-2.76-2.88-.48-5.71-1.25-8.58-1.77a2.09,2.09,0,0,0-1.74.62c-2.74,4.08-2.68,3.29.81,5.57,6.45,4.24,13.55,7.15,20.48,10.43,2.74,1.3,5.46,2.65,8.28,3.76,4.13,1.64,8.37,3,12.51,4.66a4.16,4.16,0,0,1,2.2,1.93c.18.39-.84,1.68-1.57,2-3.77,1.79-7.67,3.31-11.42,5.14-2.36,1.16-4.85,1.18-7.31,1.47-4.39.51-8.12-1.38-11.67-3.6-5.83-3.66-10.79-8.4-15.72-13.15-1.66-1.59-3.3-3.2-4.88-4.87-.83-.89-1.59-1.16-2.61-.35a18.77,18.77,0,0,1-2.6,1.87c-1.58.86-2.23,1.55-.87,4,2.18,3.9,4.36,7.82,6.85,11.54s5.4,7.4,8.24,11a21.22,21.22,0,0,0,2.92,2.46,6.09,6.09,0,0,1,.8,1.07c-.38.25-.75.71-1.14.72a18.77,18.77,0,0,1-4.11-.18c-2.9-.61-5.8-1.29-8.63-2.16-4.08-1.25-8.44-2.36-10.95-6.11a38.44,38.44,0,0,1-3.73-8.4c-.75-2.09-1-4.33-1.6-6.49-.46-1.8-.81-1.77-2.57-1.67-3.25.19-6.61.56-9.75,0-3.9-.74-6.73-5.55-6.47-9.67.35-5.36,3.21-8.11,8.57-8.3,5.11-.18,10.1-.84,14.74-3.2a20.65,20.65,0,0,0,10.87-13.57,41.88,41.88,0,0,0,.15-20.63,57.58,57.58,0,0,0-4.82-13.63,1.68,1.68,0,0,1,.05-1.52,1.72,1.72,0,0,1,1.53-.1c3.9,1.74,6.5,4.87,8.44,8.5,1.83,3.4,3.39,7,4.93,10.51a1.65,1.65,0,0,0,2.33,1.13c5.64-1.52,11.32-2.91,16.95-4.48,5.26-1.47,10.51-3,15.7-4.72q11.17-3.71,22.25-7.76a135.07,135.07,0,0,0,19.31-8.63c4.18-2.34,8.29-4.8,12.44-7.2.74-.43,1.53-.79,2.29-1.18a15.41,15.41,0,0,1,.7,3,59.5,59.5,0,0,1-1.55,14.46c-1,4.69-2.4,9.44-6.23,12.72a18.92,18.92,0,0,1-6.33,3.54c-3.88,1.25-7.91,2-11.89,2.9-3.57.82-7.14,1.64-10.75,2.29-4.18.76-8.4,1.37-12.61,2q-12.86,1.82-25.72,3.53c-4,.54-8.08,1-12.12,1.4a1.71,1.71,0,0,0-1.75,1.83c-.34,3.91-.1,4.19,3.74,4.19h4.67Z" transform="translate(-48.26 -133.96)"/><path d="M272.19,516.68l-4.77-.5c-1.15-.11-1.62.57-1.85,1.57q-.76,3.42-1.59,6.82c-1.53,6.41-4.72,11.32-11.46,13.34-3.21,1-6.33,2.17-9.71,2.48a25.33,25.33,0,0,0-3.83,1.05,3.05,3.05,0,0,1-1.43.11,17.07,17.07,0,0,1-2.14-.86c.46-.51.91-1,1.39-1.52,2-2.13,4.39-4,6-6.41,4-6,7.74-12.26,11.51-18.45,1.1-1.8.81-2.52-.93-3.7-.88-.59-1.75-1.22-2.59-1.89a1.68,1.68,0,0,0-2.63.24c-6.36,6.66-13,13.07-20.72,18.13-4,2.64-8.34,4.13-13.43,3.37-6.41-1-12.06-3.56-17.52-6.79a2.23,2.23,0,0,1-1-1.78,2.78,2.78,0,0,1,1.55-1.59c2.75-1.11,5.59-2,8.35-3.09,3.85-1.53,7.69-3.07,11.47-4.76,4.57-2,9.13-4.12,13.58-6.41,3.59-1.84,7-4,10.52-6.05a1.21,1.21,0,0,0,.4-2,12.77,12.77,0,0,1-.88-1.52c-.74-1.36-1.64-1.66-3.27-1.23-3.28.86-6.67,1.34-10,1.91-4.41.75-8.83,1.49-13.26,2.11-4.08.57-8.17,1.09-12.27,1.45-4.74.42-9.49.75-14.24.92a15.6,15.6,0,0,1-11.64-4.85,48.66,48.66,0,0,1-10.58-16.09,2.37,2.37,0,0,1,0-2,2.77,2.77,0,0,1,2.1-.52c5.35.62,10.68,1.33,16,2,6,.74,11.95,1.55,17.95,2.18,2.81.29,5.67.2,8.51.31,8.28.34,16.57.71,24.85,1,2,.08,2.19-.21,2.23-2.17.07-3.42.09-3.51-3.13-4-4.24-.59-8.5-1-12.74-1.56-6-.78-12.09-1.54-18.11-2.43-5.37-.8-10.73-1.74-16.07-2.69-4.5-.8-9-1.65-13.44-2.58-3.9-.81-7.79-1.64-11.62-2.69a14.66,14.66,0,0,1-9.76-8.65,49.05,49.05,0,0,1-3.92-18.64c-.05-1.82-.12-3.64,0-5.45.08-1.15.79-1.29,1.77-.69,4.93,2.95,9.84,5.93,14.84,8.76,6.67,3.78,13.87,6.41,21,9.11,4.81,1.82,9.72,3.41,14.59,5.08,3.66,1.25,7.29,2.61,11,3.66,6.08,1.73,12.21,3.25,18.32,4.88,2.67.71,5.34,1.45,8,2.2a1.61,1.61,0,0,0,2.24-1.07c2-4.23,3.95-8.46,6.2-12.54a15.2,15.2,0,0,1,7-6.46c.51-.24,1.24,0,1.87,0a5.47,5.47,0,0,1-.19,1.74c-4.89,10-7.33,20.54-5.14,31.65,2,10,7.72,16.11,18.47,18.32a31.48,31.48,0,0,0,7.65.79c5.76-.28,10.41,5.06,8.1,12.07a9.24,9.24,0,0,1-9.65,6.37l-1.93-.13Z" transform="translate(-48.26 -133.96)"/><path d="M297.61,579.26c.39-.74.88-1.65,1.35-2.57s1.15-2.08,1.63-3.16c.25-.57.21-1.27.41-1.87,1.2-3.54-.72-6.13-2.59-8.77a13.78,13.78,0,0,1-1.9-3.49c-1-3,.52-5.33,2.69-7.18,1.55-1.34,2.22-2.65,1.54-4.73s-.69-4.08-1.37-6c-1.12-3.15-3.88-4.9-6.51-6.63-3.69-2.43-7.49-4.69-11.25-7-1.36-.84-1.46-1.66-.13-2.5,2.16-1.36,4.46-2.52,6.59-3.93a3.1,3.1,0,0,0,1.29-2.1,23.67,23.67,0,0,1,7.19-16.59c3.16-3.09,6.05-6.32,7.86-10.43.52-1.2,1.68-1.25,2.15-.08,2.19,5.46,6.85,9,10.37,13.36a16.34,16.34,0,0,1,3.73,8c.29,2.1.58,4.2,1,6.27a2.71,2.71,0,0,0,1.18,1.53c2.13,1.33,4.36,2.49,6.48,3.82,1.61,1,1.52,1.74-.1,2.77-4.33,2.73-8.69,5.41-12.94,8.24a11.32,11.32,0,0,0-4.91,5.76c-.53,1.65-.54,3.46-1.06,5.12-.74,2.32-.07,3.9,1.78,5.42,2.26,1.84,3.42,4.36,2.33,7.28a13.81,13.81,0,0,1-2.66,4.35c-3.26,3.55-1.74,7.37-.91,11.18.09.41.57.75.9,1.09,1.66,1.7,2,3.13.85,5.18q-2.49,4.36-5.32,8.52c-1.2,1.79-2.33,1.82-3.5.07-2-3-3.84-6.12-5.71-9.22A8.45,8.45,0,0,1,297.61,579.26Zm8.45-69.93c-3.08-.1-4.94,1.42-6.17,4.31-1.41,3.31-1.45,6.85-2.13,10.28-.24,1.2.44,1.85,1.21,2.59,1.82,1.75,3.67,3.5,5.33,5.41,1.14,1.3,1.31,1.29,2.46,0,1.66-1.9,3.51-3.65,5.34-5.4.76-.74,1.39-1.41,1.18-2.6-.37-2-.45-4.17-1-6.17a33.57,33.57,0,0,0-2.32-6A4,4,0,0,0,306.06,509.33Z" transform="translate(-48.26 -133.96)"/><path d="M332.76,587.85c3.18-.94,5.56,1.27,7.56,4.62,1.74,2.92,3.85,5.62,5.74,8.45.94,1.4,1.94,1.7,3.46.8a54,54,0,0,0,10.56-8.54c4.13-4.12,8.36-8.14,12.48-12.26,1.92-1.92,3.65-4,5.57-6a2.08,2.08,0,0,1,1.84-.42c.38.17.62,1.14.57,1.72-.59,6.12-3.2,11.53-6.63,16.42-4.05,5.76-8.49,11.25-13,16.7-2.88,3.51-6,6.81-9.19,10.07-2,2-4.2,3.8-6.3,5.69-.86.77-1.59.75-2.25-.27q-4.95-7.56-9.94-15.11A38.92,38.92,0,0,0,330.6,606a3.06,3.06,0,0,0-1.89-.9c-1.6-.12-3.23.06-4.83-.05-3.22-.23-7.89-2.46-8.78-5.89a7.24,7.24,0,0,1,3.75-8.68C322.93,588.52,327.29,588,332.76,587.85Z" transform="translate(-48.26 -133.96)"/><path d="M284.86,605.05a6.09,6.09,0,0,1-1.13,0c-2.12-.4-3.3.69-4.38,2.37-3.79,5.87-7.7,11.67-11.55,17.5-.77,1.16-1.55.89-2.37.09-3.44-3.35-7-6.62-10.29-10.09s-6.69-7.09-9.68-10.92c-4.53-5.8-9.19-11.54-12.3-18.31a30.14,30.14,0,0,1-2.69-9.62c-.06-.51.36-1.52.6-1.53a2.77,2.77,0,0,1,2,.59c3.77,3.93,7.26,8.17,11.24,11.88,5.08,4.72,9.79,9.89,15.65,13.72.13.09.25.2.39.28,3.41,1.91,3.13,2,5.31-1,2.39-3.34,4.68-6.74,7-10.12a4.34,4.34,0,0,1,3.66-1.9,44.12,44.12,0,0,1,12.4,1.17c3.48.82,6.41,2.47,7.52,6.34.75,2.59-1,7-4.53,8.27-2.17.77-4.46,1.19-6.71,1.77Z" transform="translate(-48.26 -133.96)"/><path d="M291.32,474.34c-.2-.95-.44-1.9-.6-2.87s-.15-1.82-.36-2.7a2.41,2.41,0,0,0-4-1.38c-1.25,1.21-2.2,2.73-3.37,4a15.16,15.16,0,0,1-1.92,1.53c-.21-.82-.79-1.78-.55-2.45,1.08-3.1,2.31-6.16,3.65-9.17.77-1.75,1.89-3.34,2.79-5,1.78-3.35,5.07-5,8-7a17.26,17.26,0,0,0,7.7-10.37c.43-1.69.73-3.43,1.29-5.08.19-.58,1-1.39,1.45-1.34a2.38,2.38,0,0,1,1.63,1.36c.78,2.25,1.4,4.55,2,6.87.93,3.73,3.55,6.08,6.5,8.18a51,51,0,0,1,6.08,4.45,19.14,19.14,0,0,1,3.78,5.29c1.85,3.76,3.38,7.67,5,11.53a1.54,1.54,0,0,1,.17.92,19.53,19.53,0,0,1-.83,1.88,7.5,7.5,0,0,1-1.58-1.16c-1.15-1.38-2.1-3-3.35-4.23a2.74,2.74,0,0,0-2.39-.68,3.87,3.87,0,0,0-1.79,2.18,29,29,0,0,0-.67,4.1,9.92,9.92,0,0,1-.68,1.68c-.92-1.24-1.62-2.1-2.22-3-.45-.71-.77-1.51-1.17-2.25-.64-1.17-1.41-.91-1.93,0-1.17,2.08-2.26,4.22-3.31,6.37-1.2,2.42-2.18,5-3.52,7.31-1.08,1.89-2.23,1.89-3.32,0-1.33-2.34-2.31-4.88-3.51-7.31-1-2.15-2.14-4.28-3.32-6.37-.53-.93-1.3-1.13-1.93,0-.4.75-.71,1.55-1.17,2.26-.6.92-1.3,1.78-2,2.67Z" transform="translate(-48.26 -133.96)"/><path d="M253.63,560.49c4.41.32,9.19.73,14,1a2.73,2.73,0,0,0,2.05-1.11c3.78-5.81,7.46-11.67,11.14-17.54.92-1.48,2-2.39,3.91-2.19,1.54.15,3.11,0,4.66,0,1.31,0,1.81.63,2,1.94.56,3.58-1,6.2-3.25,8.77-2.61,3-5,6.27-7.4,9.45a1.69,1.69,0,0,0-.28,1.3c.06.22.69.38,1.07.42,1.43.15,2.87.21,4.31.36,3.33.34,4.75,2.83,3.15,5.72a18.11,18.11,0,0,1-2.75,3.89c-1.11,1.14-2.17.92-2.79-.53-.77-1.83-1.95-2.28-3.87-2.25-7.07.1-14.15,0-21.23,0a1.5,1.5,0,0,0-1.76,1.56c0,.32.06.66,0,1-.19.77-.44,1.52-.66,2.28a6.84,6.84,0,0,1-2.36-1c-2.67-2.54-5.34-5.1-7.78-7.86-2.85-3.23-2.05-4.27,1.54-4.81C249.27,560.57,251.26,560.62,253.63,560.49Z" transform="translate(-48.26 -133.96)"/><path d="M341.46,569.76c-3.53,0-7.08.1-10.61,0a2.88,2.88,0,0,0-3,1.78c-1.08,2.09-2.29,2.26-3.71.39a24.31,24.31,0,0,1-2.64-4.37c-.93-2,1-4.34,3.7-4.63,1.43-.15,2.87-.21,4.3-.36.39,0,1.07-.21,1.09-.38a2.16,2.16,0,0,0-.32-1.44c-3-3.89-5.9-7.87-9.11-11.58-2-2.3-1.37-4.8-1.3-7.29,0-.41,1.05-1.09,1.64-1.13a28.07,28.07,0,0,1,5.94,0,4.48,4.48,0,0,1,2.58,1.81c1.51,2.13,2.74,4.45,4.14,6.66,2.43,3.82,4.88,7.63,7.39,11.39a2.19,2.19,0,0,0,1.56.91c2.87-.11,5.74-.49,8.62-.56,4.2-.1,8.41,0,12.62,0a3.66,3.66,0,0,1,1.22.34c1.41.53,1.84,1.31,1,2.51a78.38,78.38,0,0,1-5.34,6.33,36.82,36.82,0,0,1-4,3.69,2.42,2.42,0,0,1-1.95.58c-.43-.16-.58-1.17-.74-1.83a13.8,13.8,0,0,1,0-1.44,1.45,1.45,0,0,0-1.71-1.44c-3.75.06-7.5,0-11.26,0Z" transform="translate(-48.26 -133.96)"/><path d="M302,185.91c-.11,3.53-2.36,6.17-5.88,6.32a6.6,6.6,0,0,1-6.58-6.18,6.52,6.52,0,0,1,6.16-6.41A6.19,6.19,0,0,1,302,185.91Z" transform="translate(-48.26 -133.96)"/><path d="M315.29,179.64a6.53,6.53,0,0,1,6.2,6.37,6.61,6.61,0,0,1-6.55,6.22,6,6,0,0,1-5.9-6.29A6.12,6.12,0,0,1,315.29,179.64Z" transform="translate(-48.26 -133.96)"/><path d="M296,229.27c3.72-.51,6.05,3.32,6.09,5.81A6.06,6.06,0,0,1,296,241.5c-3.81,0-6-2.8-6.2-6.17C289.63,232.47,292.39,228.75,296,229.27Z" transform="translate(-48.26 -133.96)"/><path d="M315.09,241.51A6.15,6.15,0,0,1,309,235.1c0-3.31,2.76-5.67,6.41-5.88,3-.18,6,3,5.9,6.1C321.14,238.68,318.9,241.49,315.09,241.51Z" transform="translate(-48.26 -133.96)"/><path d="M279.09,404c-7.09,0-14.17,0-21.25,0-.72,0-2-.35-2-.75a3.35,3.35,0,0,1,.53-2.49c6.33-8.35,12.73-16.64,19.12-24.94.79-1,1.58-2,2.4-3s1.72-1.2,2.62,0c2.62,3.39,5.26,6.75,7.87,10.13q6.12,8,12.21,15.92a10.21,10.21,0,0,1,1.3,1.81,4.87,4.87,0,0,1,.67,2.59c-.08.39-1.41.77-2.18.78-7.08.06-14.16,0-21.24,0Z" transform="translate(-48.26 -133.96)"/><path d="M331.86,404c-7,0-14.05,0-21.08,0-.78,0-2.2-.4-2.22-.7a4.17,4.17,0,0,1,.7-2.71c5.65-7.59,11.38-15.13,17.11-22.66,1.3-1.7,2.64-3.37,4.05-5,1.25-1.42,1.83-1.39,3,.14,2.26,2.84,4.48,5.72,6.69,8.61,4.82,6.27,9.66,12.53,14.4,18.86a4.61,4.61,0,0,1,.66,2.77c0,.25-1.36.65-2.1.65-7.08.05-14.16,0-21.25,0Z" transform="translate(-48.26 -133.96)"/><path d="M305.55,369.5c-7,0-14,0-21.06,0-.82,0-2.27-.42-2.32-.81A4,4,0,0,1,283,366c4.31-5.72,8.7-11.38,13.07-17.05,2.57-3.34,5.14-6.69,7.74-10,1.25-1.61,2.26-1.63,3.47-.05q8.68,11.31,17.33,22.64c1.18,1.53,2.5,2.95,3.59,4.53a3.61,3.61,0,0,1,.74,2.53c-.14.49-1.48.88-2.28.89C319.59,369.53,312.57,369.5,305.55,369.5Z" transform="translate(-48.26 -133.96)"/><path class="cls-1" d="M306.06,509.33A4,4,0,0,1,310,511.7a33.57,33.57,0,0,1,2.32,6c.54,2,.62,4.12,1,6.17.21,1.19-.42,1.86-1.18,2.6-1.83,1.75-3.68,3.5-5.34,5.4-1.15,1.32-1.32,1.33-2.46,0-1.66-1.91-3.51-3.66-5.33-5.41-.77-.74-1.45-1.39-1.21-2.59.68-3.43.72-7,2.13-10.28C301.12,510.75,303,509.23,306.06,509.33Z" transform="translate(-48.26 -133.96)"/></svg>